<svg width="140" height="22" viewBox="0 0 140 22" fill="none" xmlns="http://www.w3.org/2000/svg">
<path d="M4.59 22L6.54 13.8658L0 8.39474L8.64 7.67105L12 0L15.36 7.67105L24 8.39474L17.46 13.8658L19.41 22L12 17.6868L4.59 22Z" fill="#04B3E2"/>
<path d="M33.59 22L35.54 13.8658L29 8.39474L37.64 7.67105L41 0L44.36 7.67105L53 8.39474L46.46 13.8658L48.41 22L41 17.6868L33.59 22Z" fill="#04B3E2"/>
<path d="M62.59 22L64.54 13.8658L58 8.39474L66.64 7.67105L70 0L73.36 7.67105L82 8.39474L75.46 13.8658L77.41 22L70 17.6868L62.59 22Z" fill="#04B3E2"/>
<path d="M91.59 22L93.54 13.8658L87 8.39474L95.64 7.67105L99 0L102.36 7.67105L111 8.39474L104.46 13.8658L106.41 22L99 17.6868L91.59 22Z" fill="#04B3E2"/>
<path d="M120.59 22L122.54 13.8658L116 8.39474L124.64 7.67105L128 0L131.36 7.67105L140 8.39474L133.46 13.8658L135.41 22L128 17.6868L120.59 22Z" fill="#04B3E2"/>
</svg>
