<svg width="66" height="66" viewBox="0 0 66 66" fill="none" xmlns="http://www.w3.org/2000/svg">
<path d="M17.1333 32.9999L30.7333 44.3333L48.8666 21.6666M32.9999 64.7333C28.8327 64.7333 24.7062 63.9125 20.8561 62.3177C17.006 60.723 13.5078 58.3855 10.5611 55.4388C7.61437 52.4921 5.27691 48.9938 3.68216 45.1438C2.08741 41.2937 1.2666 37.1672 1.2666 32.9999C1.2666 28.8327 2.08741 24.7062 3.68216 20.8561C5.27691 17.006 7.61437 13.5078 10.5611 10.5611C13.5078 7.61437 17.006 5.27691 20.8561 3.68216C24.7062 2.08741 28.8327 1.2666 32.9999 1.2666C41.4161 1.2666 49.4876 4.60993 55.4388 10.5611C61.3899 16.5122 64.7333 24.5837 64.7333 32.9999C64.7333 41.4161 61.3899 49.4876 55.4388 55.4388C49.4876 61.3899 41.4161 64.7333 32.9999 64.7333Z" stroke="white" stroke-width="2"/>
</svg>
