<svg width="60" height="60" viewBox="0 0 60 60" fill="none" xmlns="http://www.w3.org/2000/svg">
<path d="M18.8507 27.2571L4.16838 32.3316C-2.76478 34.9241 6.58238 46.878 9.68489 49.9663C12.7874 53.0546 25.2739 62.8183 27.8777 55.9191L32.8162 41.1518M5.16289 42.7215L12.8186 38.8171M17.6437 54.0775L21.1967 47.1556M31.7736 19.3748L34.6154 16.5471C35.7317 15.4365 37.6811 15.6433 38.7974 16.7568L43.2287 21.1655C43.4943 21.4289 43.7051 21.7422 43.8489 22.0875C43.9928 22.4328 44.0668 22.8031 44.0668 23.1771C44.0668 23.5512 43.9928 23.9215 43.8489 24.2668C43.7051 24.612 43.4943 24.9254 43.2287 25.1888L40.3897 28.0136C39.5528 28.8449 38.9962 29.9166 38.7974 31.0793L37.3949 39.2308C37.0039 41.506 34.1932 42.3956 32.5527 40.7608L19.6951 27.1976C18.0517 25.5656 18.3521 22.9476 20.6386 22.5595L28.8326 21.1655C29.9999 20.9671 30.9377 20.205 31.7736 19.372M44.0079 21.5083L56.9931 8.07264C60.8379 4.24764 55.5509 -0.710693 51.8704 2.94997L38.2874 15.8133" stroke="white" stroke-width="2" stroke-linecap="round" stroke-linejoin="round"/>
</svg>
