<svg width="21" height="17" viewBox="0 0 21 17" fill="none" xmlns="http://www.w3.org/2000/svg">
<path d="M7 8.05263H1.84625C2.00887 6.94525 2.39557 5.88473 2.98164 4.9388C3.56772 3.99287 4.34028 3.18233 5.25 2.55895L6.81625 1.48526L5.85375 0L4.2875 1.07368C2.96912 1.97207 1.88799 3.18934 1.14007 4.61749C0.392137 6.04564 0.000531201 7.64049 0 9.26053V15.2105C0 15.6851 0.184374 16.1403 0.512563 16.4759C0.840752 16.8115 1.28587 17 1.75 17H7C7.46413 17 7.90925 16.8115 8.23744 16.4759C8.56563 16.1403 8.75 15.6851 8.75 15.2105V9.8421C8.75 9.36751 8.56563 8.91235 8.23744 8.57676C7.90925 8.24117 7.46413 8.05263 7 8.05263ZM19.25 8.05263H14.0963C14.2589 6.94525 14.6456 5.88473 15.2316 4.9388C15.8177 3.99287 16.5903 3.18233 17.5 2.55895L19.0662 1.48526L18.1125 0L16.5375 1.07368C15.2191 1.97207 14.138 3.18934 13.3901 4.61749C12.6421 6.04564 12.2505 7.64049 12.25 9.26053V15.2105C12.25 15.6851 12.4344 16.1403 12.7626 16.4759C13.0908 16.8115 13.5359 17 14 17H19.25C19.7141 17 20.1592 16.8115 20.4874 16.4759C20.8156 16.1403 21 15.6851 21 15.2105V9.8421C21 9.36751 20.8156 8.91235 20.4874 8.57676C20.1592 8.24117 19.7141 8.05263 19.25 8.05263Z" fill="black"/>
</svg>
