<svg width="52" height="52" viewBox="0 0 52 52" fill="none" xmlns="http://www.w3.org/2000/svg">
<path d="M50.4305 39.2266L50.4289 39.2389C50.0218 42.3107 48.5099 45.1292 46.1758 47.1673C43.8422 49.205 40.8464 50.3232 37.7483 50.3129C37.7477 50.3129 37.7471 50.3129 37.7466 50.3129L37.75 49.3129L50.4305 39.2266ZM50.4305 39.2266L50.4318 39.2143M50.4305 39.2266L50.4318 39.2143M50.4318 39.2143C50.4793 38.7719 50.3825 38.326 50.1557 37.9431L49.2953 38.4527M50.4318 39.2143L49.2953 38.4527M49.2953 38.4527L50.1557 37.9431C49.9317 37.5647 49.5926 37.268 49.1882 37.0961L36.6583 31.48L36.6473 31.4751L36.6363 31.4705C36.3378 31.3452 36.0138 31.2926 35.6911 31.317C35.3683 31.3414 35.0559 31.4422 34.7796 31.6109L34.7128 31.6518L34.6531 31.7026L28.0793 37.2941L28.0296 37.3317C27.7207 37.5326 27.3659 37.6522 26.9982 37.6793C26.6229 37.707 26.2469 37.6374 25.9064 37.4774C21.3304 35.2656 16.738 30.705 14.529 26.1854C14.3677 25.8471 14.296 25.473 14.3209 25.0991C14.3456 24.726 14.4656 24.3655 14.6693 24.052L14.6802 24.038L14.6901 24.0253L20.3068 17.3457L20.3609 17.2814L20.4034 17.209C20.5672 16.9305 20.6633 16.6174 20.6839 16.295C20.7045 15.9726 20.649 15.6498 20.522 15.3528L20.5187 15.3449L20.5152 15.3371L14.9137 2.82854C14.7591 2.45956 14.5005 2.14334 14.1693 1.91859C13.8396 1.69495 13.4525 1.57165 13.0546 1.56329C12.9807 1.55977 12.9067 1.56023 12.8328 1.56467L12.797 1.56683L12.7615 1.57154C9.68965 1.97856 6.87121 3.49046 4.83311 5.82456C2.7954 8.15822 1.67722 11.154 1.68753 14.2521L49.2953 38.4527ZM49.2363 36.9789L49.2362 36.979L49.2462 36.9833C49.6784 37.1711 50.0384 37.4935 50.2725 37.9024C50.5059 38.3099 50.6019 38.7817 50.5465 39.2479C50.1365 42.3477 48.6127 45.1924 46.2595 47.2515C43.9049 49.3117 40.8808 50.4444 37.7521 50.4379H37.75C17.7961 50.4379 1.56253 34.2043 1.56253 14.2504L1.56253 14.2483C1.55604 11.1196 2.68869 8.09553 4.74893 5.74092C6.80797 3.38766 9.65277 1.86394 12.7525 1.45391C13.221 1.39797 13.695 1.49498 14.1039 1.73054C14.5141 1.96688 14.8366 2.32992 15.0229 2.76515L15.0264 2.77325L15.03 2.78129L20.65 15.2956C20.7918 15.6271 20.8495 15.9886 20.8179 16.3478C20.7864 16.7057 20.6672 17.0502 20.471 17.3511L20.4628 17.3628L20.4542 17.3749C20.4541 17.3752 20.4539 17.3754 20.4538 17.3756L14.8289 24.0644L14.7783 24.1246L14.7376 24.192C14.564 24.4803 14.4645 24.8072 14.4481 25.1434C14.4317 25.4795 14.4989 25.8145 14.6437 26.1184L14.6436 26.1184L14.6479 26.1271C16.8298 30.5939 21.4594 35.1861 25.9731 37.3651L25.9801 37.3685L25.9871 37.3718C26.2921 37.5132 26.6272 37.5773 26.9629 37.5582C27.2986 37.5392 27.6243 37.4376 27.9114 37.2625L27.979 37.2213L28.0394 37.1698L34.6207 31.5597L34.6227 31.5585L34.6302 31.5535C34.9336 31.3531 35.2822 31.2315 35.6444 31.1997C36.0047 31.168 36.3673 31.2262 36.6996 31.369L49.2363 36.9789Z" fill="white" stroke="white" stroke-width="2"/>
</svg>
