<svg width="40" height="58" viewBox="0 0 40 58" fill="none" xmlns="http://www.w3.org/2000/svg">
<path d="M20.0002 1.375C17.5628 1.37481 15.1493 1.85475 12.8975 2.7874C10.6456 3.72005 8.59951 5.08714 6.87604 6.81061C5.15257 8.53408 3.78548 10.5802 2.85283 12.832C1.92018 15.0839 1.44024 17.4974 1.44043 19.9347C1.44043 34.4598 15.6099 51.9387 19.323 56.2326C19.5225 56.4607 19.8041 56.6007 20.1064 56.6219C20.4087 56.6431 20.7072 56.5439 20.9366 56.3459L21.0499 56.2326C24.7134 51.9217 38.5585 34.4598 38.5585 19.9333C38.5585 17.4962 38.0785 15.083 37.1458 12.8314C36.2132 10.5798 34.8462 8.53391 33.1229 6.81061C31.3996 5.08731 29.3537 3.72031 27.1021 2.78767C24.8505 1.85503 22.4373 1.375 20.0002 1.375ZM20.0002 24.971C18.7553 24.971 17.5384 24.6018 16.5033 23.9102C15.4682 23.2186 14.6614 22.2356 14.185 21.0855C13.7087 19.9353 13.584 18.6698 13.8269 17.4488C14.0697 16.2278 14.6692 15.1063 15.5495 14.226C16.4297 13.3458 17.5513 12.7463 18.7722 12.5034C19.9932 12.2606 21.2588 12.3852 22.4089 12.8616C23.559 13.338 24.542 14.1448 25.2337 15.1799C25.9253 16.2149 26.2944 17.4319 26.2944 18.6767V18.6923C26.2903 20.359 25.6253 21.9559 24.4454 23.133C23.2654 24.31 21.6668 24.971 20.0002 24.971Z" stroke="#04B3E2" stroke-width="2" stroke-linecap="round" stroke-linejoin="round"/>
</svg>
